<?xml version="1.0" standalone="no"?>
<!DOCTYPE svg PUBLIC "-//W3C//DTD SVG 20010904//EN"
 "http://www.w3.org/TR/2001/REC-SVG-20010904/DTD/svg10.dtd">
<svg version="1.0" xmlns="http://www.w3.org/2000/svg"
 width="3508.000000pt" height="2480.000000pt" viewBox="0 0 3508.000000 2480.000000"
 preserveAspectRatio="xMidYMid meet">

<g transform="translate(0.000000,2480.000000) scale(0.100000,-0.100000)"
fill="#000000" stroke="none">
<path d="M15364 13447 c-3 -8 -4 -239 -2 -515 l3 -500 30 -43 c17 -23 53 -55
80 -70 95 -53 141 -59 462 -59 l293 0 0 105 0 105 -275 0 -275 0 0 240 0 240
273 2 272 3 3 103 3 102 -276 0 -275 0 0 150 0 150 -155 0 c-121 0 -157 -3
-161 -13z"/>
<path d="M22492 12938 l3 -524 23 -28 c32 -41 78 -73 141 -98 49 -19 81 -22
249 -26 l192 -4 0 106 0 106 -145 0 -145 0 -2 493 -3 492 -158 3 -158 3 3
-523z"/>
<path d="M7060 12820 l0 -560 160 0 160 0 0 189 0 190 588 3 587 3 58 23 c74
30 137 78 160 122 15 31 17 59 15 232 l-3 196 -30 38 c-17 20 -53 50 -82 66
-100 56 -121 58 -900 58 l-713 0 0 -560z m1405 190 l0 -155 -542 -3 -543 -2 0
160 0 160 543 -2 542 -3 0 -155z"/>
<path d="M8827 13373 c-4 -3 -7 -51 -7 -105 l0 -98 355 0 355 0 0 -455 0 -455
160 0 160 0 0 455 0 455 355 0 355 0 0 105 0 105 -863 0 c-475 0 -867 -3 -870
-7z"/>
<path d="M11850 12820 l0 -561 753 3 752 3 56 23 c82 33 137 77 160 125 17 39
19 70 19 407 0 337 -2 368 -19 407 -23 48 -78 92 -160 125 l-56 23 -752 3
-753 3 0 -561z m1410 0 l0 -350 -545 0 -545 0 0 350 0 350 545 0 545 0 0 -350z"/>
<path d="M18690 12820 l0 -560 160 0 160 0 2 406 3 406 323 -247 c178 -136
329 -244 335 -242 7 3 154 113 327 246 l315 241 3 -405 2 -405 163 2 162 3 0
555 0 555 -175 2 -175 3 -310 -240 c-170 -131 -313 -239 -316 -239 -3 -1 -147
107 -320 239 l-314 240 -172 0 -173 0 0 -560z"/>
<path d="M28417 13373 c-4 -3 -7 -208 -7 -455 l0 -448 -542 2 -543 3 -3 68 -3
68 -157 -3 -157 -3 -3 -73 c-4 -96 19 -148 85 -196 100 -72 84 -71 788 -71
l630 0 56 23 c82 33 137 77 160 125 17 39 19 72 19 505 l0 462 -158 0 c-87 0
-162 -3 -165 -7z"/>
<path d="M13802 12787 c3 -370 3 -373 26 -401 32 -41 77 -72 141 -99 55 -22
62 -22 531 -22 531 0 536 1 633 71 86 63 87 65 87 472 l0 352 -160 0 -160 0 0
-345 0 -345 -390 0 -390 0 0 345 0 345 -160 0 -161 0 3 -373z"/>
<path d="M16370 13055 l0 -105 550 0 550 0 0 -65 0 -65 -550 0 -550 0 0 -196
c0 -225 4 -238 86 -293 102 -67 86 -66 739 -66 l590 0 3 350 c2 347 2 351 -20
395 -30 58 -92 104 -174 130 -63 19 -92 20 -645 20 l-579 0 0 -105z m1100
-515 l0 -70 -390 0 -390 0 0 70 0 70 390 0 390 0 0 -70z"/>
<path d="M20862 12796 l3 -364 30 -43 c35 -49 106 -92 190 -114 88 -22 892
-22 980 0 84 22 155 65 190 114 l30 43 3 364 3 364 -161 0 -160 0 0 -345 0
-345 -395 0 -395 0 0 345 0 345 -161 0 -160 0 3 -364z"/>
<path d="M23242 12793 c3 -367 3 -368 26 -401 33 -45 81 -79 148 -105 57 -21
73 -22 492 -25 l432 -3 0 -74 0 -75 -435 0 -435 0 0 -100 0 -101 493 3 492 3
55 26 c70 33 119 74 136 116 11 26 14 138 14 568 l0 535 -160 0 -160 0 0 -345
0 -345 -390 0 -390 0 0 345 0 345 -160 0 -161 0 3 -367z"/>
<path d="M24802 13058 l3 -103 553 -3 552 -2 0 -65 0 -65 -552 -2 -553 -3 0
-192 0 -191 30 -43 c35 -50 107 -92 191 -114 51 -13 142 -15 630 -13 l569 3 0
360 c0 345 -1 361 -20 395 -30 50 -96 96 -171 120 -63 19 -92 20 -650 20
l-585 0 3 -102z m1108 -518 l0 -70 -395 0 -395 0 0 70 0 70 395 0 395 0 0 -70z"/>
<path d="M28950 13055 l0 -105 550 0 550 0 0 -65 0 -65 -550 0 -550 0 0 -191
c0 -218 5 -239 73 -289 23 -17 66 -40 97 -53 55 -22 56 -22 650 -22 l595 0 3
350 c2 347 2 351 -20 395 -30 58 -92 104 -174 130 -63 19 -92 20 -645 20
l-579 0 0 -105z m1100 -515 l0 -70 -390 0 -390 0 0 70 0 70 390 0 390 0 0 -70z"/>
<path d="M30540 12808 c0 -407 1 -409 86 -472 97 -70 100 -70 582 -74 l432 -3
0 -74 0 -75 -430 0 -430 0 0 -100 0 -101 488 3 487 3 60 28 c65 31 109 67 131
109 12 22 14 122 14 568 l0 541 -157 -3 -158 -3 -3 -342 -2 -343 -390 0 -390
0 0 345 0 345 -160 0 -160 0 0 -352z"/>
<path d="M32110 13055 l0 -105 550 0 550 0 0 -65 0 -65 -551 0 -550 0 3 -203
c3 -193 4 -204 26 -231 32 -41 77 -72 141 -99 56 -22 57 -22 651 -22 l595 0 3
350 c2 347 2 351 -20 395 -30 58 -92 104 -174 130 -63 19 -92 20 -645 20
l-579 0 0 -105z m1100 -515 l0 -70 -390 0 -390 0 0 70 0 70 390 0 390 0 0 -70z"/>
<path d="M10680 12365 l0 -105 160 0 160 0 0 105 0 105 -160 0 -160 0 0 -105z"/>
<path d="M17082 11639 l3 -182 28 -21 c21 -15 47 -22 103 -24 l74 -4 0 36 0
36 -50 0 -50 0 0 170 0 170 -55 0 -55 0 2 -181z"/>
<path d="M17580 11645 c0 -172 1 -176 24 -200 30 -30 68 -37 181 -33 l90 3 3
33 3 32 -95 0 -96 0 0 85 0 85 96 0 95 0 -3 33 -3 32 -92 3 -93 3 0 49 0 50
-55 0 -55 0 0 -175z"/>
<path d="M19270 11770 l0 -50 -145 0 c-155 0 -204 -10 -224 -48 -6 -12 -11
-60 -11 -107 0 -150 10 -155 290 -155 l200 0 0 205 0 205 -55 0 -55 0 0 -50z
m0 -205 l0 -85 -135 0 -135 0 0 85 0 85 135 0 135 0 0 -85z"/>
<path d="M19450 11786 l0 -36 56 0 55 0 -3 33 c-3 31 -4 32 -55 35 l-53 3 0
-35z"/>
<path d="M23520 11615 l0 -205 55 0 55 0 0 60 0 60 43 0 c35 0 55 -9 127 -60
80 -56 88 -60 143 -60 31 0 57 4 57 9 0 5 -39 38 -87 72 -49 34 -91 65 -96 69
-4 4 35 37 88 74 52 36 95 71 95 76 0 6 -26 10 -57 10 -54 0 -63 -4 -145 -60
-71 -49 -94 -60 -127 -60 l-41 0 0 110 0 110 -55 0 -55 0 0 -205z"/>
<path d="M24580 11615 l0 -205 55 0 55 0 0 120 0 120 135 0 135 0 0 -121 0
-120 53 3 52 3 3 111 c1 61 -2 122 -7 136 -17 46 -64 58 -225 58 l-146 0 0 50
0 50 -55 0 -55 0 0 -205z"/>
<path d="M14000 11698 l-35 -24 0 -108 c0 -108 0 -109 28 -130 25 -19 44 -21
183 -24 l154 -3 0 -25 0 -24 -145 0 -145 0 0 -36 0 -35 174 3 c169 3 175 4
200 27 26 24 26 25 26 186 0 161 0 162 -26 186 -25 23 -31 24 -202 27 -172 3
-178 3 -212 -20z m330 -133 l0 -85 -130 0 -130 0 0 85 0 85 130 0 130 0 0 -85z"/>
<path d="M14543 11705 c-44 -19 -53 -42 -53 -134 0 -155 11 -161 289 -161
l201 0 0 35 0 35 -190 0 -190 0 0 25 0 25 190 0 190 0 0 61 c0 116 -24 129
-247 129 -112 -1 -167 -5 -190 -15z m327 -80 l0 -25 -135 0 -135 0 0 25 0 25
135 0 135 0 0 -25z"/>
<path d="M15050 11565 l0 -156 53 3 52 3 3 118 3 117 129 0 130 0 0 -120 0
-120 55 0 56 0 -3 131 c-4 182 9 173 -269 177 l-209 3 0 -156z"/>
<path d="M15635 11706 c-52 -23 -56 -35 -53 -146 3 -100 4 -104 31 -124 26
-20 43 -21 238 -24 l209 -3 0 35 0 36 -185 0 -185 0 0 25 0 25 185 0 185 0 0
68 c0 61 -3 71 -26 93 -25 23 -31 24 -197 26 -127 2 -180 -1 -202 -11z m315
-81 l0 -25 -130 0 -130 0 0 25 0 25 130 0 130 0 0 -25z"/>
<path d="M16163 11705 c-17 -7 -36 -22 -42 -34 -6 -11 -11 -73 -11 -140 l0
-121 55 0 55 0 0 120 0 120 135 0 135 0 0 35 0 35 -147 0 c-103 -1 -158 -5
-180 -15z"/>
<path d="M16550 11685 l0 -35 185 0 185 0 0 -25 0 -25 -185 0 -186 0 3 -71 c3
-66 5 -74 31 -93 26 -20 43 -21 238 -24 l209 -3 0 130 c0 184 5 181 -281 181
l-199 0 0 -35z m370 -180 l0 -25 -130 0 -130 0 0 25 0 25 130 0 130 0 0 -25z"/>
<path d="M17972 11705 c-45 -19 -53 -50 -50 -179 l3 -111 53 -3 52 -3 0 120 0
121 135 0 135 0 0 35 0 35 -147 0 c-105 -1 -158 -5 -181 -15z"/>
<path d="M18360 11685 l0 -35 190 0 190 0 0 -25 0 -25 -190 0 -190 0 0 -65 c0
-56 4 -69 24 -90 33 -33 63 -36 276 -33 l185 3 3 118 c2 72 -2 125 -8 138 -23
41 -66 49 -280 49 l-200 0 0 -35z m380 -180 l0 -25 -135 0 -135 0 0 25 0 25
135 0 135 0 0 -25z"/>
<path d="M19450 11565 l0 -156 53 3 52 3 0 150 0 150 -52 3 -53 3 0 -156z"/>
<path d="M19624 11707 c-2 -7 -3 -76 -2 -152 l3 -140 53 -3 52 -3 0 120 0 121
135 0 135 0 0 -120 0 -120 55 0 55 0 0 121 c0 67 -5 129 -11 141 -22 40 -66
48 -274 48 -151 0 -197 -3 -201 -13z"/>
<path d="M20220 11709 c-54 -22 -60 -35 -60 -136 0 -52 5 -103 11 -115 20 -38
69 -48 224 -48 l145 0 0 -25 0 -25 -150 0 -150 0 0 -35 0 -35 160 0 c179 0
223 10 240 55 13 33 13 285 1 318 -18 46 -63 57 -238 56 -87 0 -169 -5 -183
-10z m320 -144 l0 -85 -135 0 -135 0 0 85 0 85 135 0 135 0 0 -85z"/>
<path d="M20950 11565 l0 -155 55 0 55 0 0 120 0 120 135 0 135 0 0 -121 0
-120 53 3 52 3 3 111 c5 192 1 194 -288 194 l-200 0 0 -155z"/>
<path d="M21742 11697 c7 -13 49 -83 93 -155 l80 -132 41 0 c41 0 41 0 108
100 37 56 71 98 76 95 5 -3 39 -48 75 -101 l67 -95 41 3 42 3 88 150 88 150
-47 3 c-26 2 -52 1 -59 -2 -7 -2 -34 -41 -60 -86 -26 -44 -52 -79 -57 -78 -5
2 -36 39 -67 83 l-57 80 -56 3 -57 3 -61 -91 -62 -92 -58 91 -59 91 -56 0
c-55 0 -56 0 -43 -23z"/>
<path d="M22603 11705 c-44 -19 -53 -42 -53 -134 0 -150 17 -161 244 -161 167
0 214 10 235 48 6 12 11 60 11 107 0 99 -9 121 -55 141 -47 19 -336 19 -382
-1z m327 -140 l0 -85 -135 0 -135 0 0 85 0 85 135 0 135 0 0 -85z"/>
<path d="M23142 11705 c-45 -19 -53 -50 -50 -179 l3 -111 53 -3 52 -3 0 120 0
121 135 0 135 0 0 35 0 35 -147 0 c-105 -1 -158 -5 -181 -15z"/>
<path d="M24083 11705 c-71 -31 -73 -124 -3 -160 22 -11 65 -15 180 -15 l150
0 0 -25 0 -25 -135 0 c-83 0 -135 4 -135 10 0 6 -25 10 -55 10 -57 0 -63 -6
-44 -42 21 -38 68 -48 235 -48 124 0 163 3 191 17 64 30 70 117 10 153 -28 17
-51 20 -184 20 l-153 0 0 25 0 25 135 0 c83 0 135 -4 135 -10 0 -11 97 -14
103 -2 11 17 -15 54 -48 67 -47 20 -336 20 -382 0z"/>
<path d="M25163 11705 c-17 -7 -36 -22 -42 -34 -14 -26 -14 -186 0 -213 20
-37 69 -48 222 -48 163 0 192 4 227 30 23 17 25 27 28 107 6 162 -10 173 -245
173 -112 -1 -167 -5 -190 -15z m327 -140 l0 -85 -135 0 -135 0 0 85 0 85 135
0 135 0 0 -85z"/>
<path d="M25670 11506 l0 -216 55 0 55 0 0 59 0 60 154 3 c139 3 158 5 183 24
28 21 28 22 28 129 0 107 0 108 -28 129 -26 20 -43 21 -238 24 l-209 3 0 -215z
m370 59 l0 -85 -130 0 -130 0 0 85 0 85 130 0 130 0 0 -85z"/>
</g>
</svg>
